<svg width="372" height="284" viewBox="0 0 372 284" fill="none" xmlns="http://www.w3.org/2000/svg">
<path fill-rule="evenodd" clip-rule="evenodd" d="M123.34 1.89197C104.022 5.93311 84.802 11.8597 66.6808 19.3622L56.4138 23.6133L51.293 31.6403C23.074 75.8764 6.68928 121.776 1.31272 171.653C-0.0328768 184.132 -0.441205 213.951 0.546194 227.605L1.15869 236.082L8.90166 241.477C32.3115 257.789 58.7351 271.16 85.5482 280.262C90.6777 282.004 95.0167 283.428 95.1904 283.428C95.7702 283.428 107.631 264.986 111.049 258.77C112.903 255.398 114.327 252.196 114.212 251.656C114.097 251.115 110.57 249.196 106.374 247.39C96.2243 243.024 84.5775 236.811 84.5775 235.765C84.5775 235.302 86.0582 233.71 87.8674 232.228L91.1573 229.532L98.9475 232.791C155.028 256.252 214.584 256.541 270.011 233.62C278.663 230.041 279.704 229.767 281.064 230.706C284.794 233.28 286.76 235.294 286.287 236.059C285.463 237.391 273.87 243.457 264.802 247.299C260.186 249.255 256.289 250.976 256.142 251.123C255.386 251.877 273.632 281.81 275.584 283.016C275.943 283.238 280.603 281.924 285.941 280.097C314.891 270.184 338.008 258.268 366.279 238.687C367.964 237.521 369.506 236.075 369.705 235.475C369.903 234.876 370.439 228.01 370.895 220.217C374.535 158.137 358.662 95.2938 325.618 40.9614C314.833 23.2275 315.612 24.0638 306.151 20.0698C286.132 11.6199 259.494 3.6517 240.6 0.461369L237.867 0L233.031 9.84347C228.969 18.111 227.935 19.6862 226.569 19.6862C225.674 19.6862 220.579 19.1442 215.246 18.4823C201.746 16.8054 169.25 16.8003 155.893 18.4721C150.56 19.1398 145.465 19.6862 144.57 19.6862C143.205 19.6862 142.172 18.1147 138.125 9.87762C135.475 4.48289 132.887 0.0980877 132.374 0.132963C131.861 0.168564 127.796 0.959789 123.34 1.89197ZM137.143 121.33C146.105 125.647 153.463 134.843 156.121 145.049C156.733 147.398 157.234 152.125 157.234 155.553C157.234 166.283 154.03 175.103 147.554 182.194C140.067 190.394 132.284 193.733 121.925 193.189C116.824 192.921 115.085 192.466 110.492 190.196C85.2365 177.714 83.5022 138.63 107.519 123.17C113.19 119.52 117.31 118.488 125.265 118.727C131.346 118.909 132.759 119.219 137.143 121.33ZM260.658 121.33C269.552 125.614 276.638 134.413 279.681 144.953C281.453 151.092 280.885 164.401 278.599 170.332C272.853 185.236 260.225 193.965 245.523 193.194C237.5 192.772 231.35 189.857 225.095 183.511C205.608 163.738 212.801 128.844 238.236 119.765C241.009 118.776 243.527 118.521 248.781 118.699C254.829 118.905 256.299 119.231 260.658 121.33Z" fill="black"/>
</svg>
