<svg width="510" height="416" viewBox="0 0 510 416" fill="none" xmlns="http://www.w3.org/2000/svg">
<path fill-rule="evenodd" clip-rule="evenodd" d="M335.663 1.54398C294.872 8.91398 262.655 38.734 251.868 79.107C250.01 86.061 249.629 90.188 249.574 103.947C249.538 113.022 249.857 122.397 250.283 124.779L251.058 129.112L244.283 128.491C200.242 124.458 164.593 114.349 129.114 95.832C96.348 78.731 62.207 51.881 41.273 26.749C38.145 22.994 35.138 20.07 34.59 20.253C34.043 20.435 31.874 24.477 29.769 29.236C15.405 61.705 18.086 99.243 36.851 128.397C42.344 136.93 51.291 147.013 58.561 152.861L66.127 158.947H62.025C53.252 158.947 34.906 153.996 25.056 148.971C22.873 147.858 20.721 146.947 20.274 146.947C18.862 146.947 20.731 165.277 23.037 174.042C32.118 208.566 57.743 235.866 91.776 247.276C97.424 249.17 101.406 250.964 100.625 251.264C96.113 252.995 81.289 254.165 69.775 253.698L56.848 253.173L57.493 255.742C58.591 260.12 65.973 274.143 70.567 280.582C88.242 305.352 117.096 322.365 145.258 324.622C149.521 324.964 153.008 325.585 153.008 326.003C153.008 327.694 130.592 341.588 116.882 348.395C85.672 363.889 54.831 370.593 18.513 369.775L0 369.358L5.254 372.657C12.906 377.461 36.088 389.167 46.508 393.487C102.595 416.743 168.076 422.037 229.886 408.315C320.848 388.121 395.679 324.96 433.473 236.476C449.633 198.641 457.739 161.486 458.568 121.447L458.941 103.447L466.181 97.628C475.44 90.186 485.843 80.269 493.675 71.417C500.372 63.849 510.176 50.782 509.595 50.2C509.396 50.002 506.37 51.009 502.871 52.439C489.625 57.851 458.89 65.649 454.297 64.764C453.162 64.545 453.983 63.568 456.954 61.601C464.502 56.606 477.984 42.791 483.713 34.182C488.687 26.706 495.964 12.05 495.996 9.44298C496.003 8.89098 489.87 11.447 482.368 15.122C468.809 21.765 451.121 28.166 437.258 31.447L430.008 33.162L423.945 27.549C400.535 5.87498 366.758 -4.07402 335.663 1.54398Z" fill="black"/>
</svg>
